;TYPE=PLATED
;Layer: PTH_Through
;EasyEDA Pro v2.2.37.3, 2025-03-15 19:37:20
;Gerber Generator version 0.3
M48
METRIC,LZ,0000.00000
;Hole size 1 = 0.30500 METRIC
T01C0.30500
;Hole size 2 = 0.70002 METRIC
T02C0.70002
;Hole size 3 = 1.50002 METRIC
T03C1.50002
;Hole size 4 = 2.70000 METRIC
T04C2.70000
%
G05
G90
T01
X12.49998Y18.00001
X12.66359Y11.9
X14.48604Y17.2933
X20.50003Y12.70882
X4.40004Y12.99997
X4.99999Y12.30008
X4.40004Y17.09992
X4.99999Y17.69986
X12.59997Y15.99997
X12.59997Y13.99997
T02
X2.22504Y10.68001G85X1.72507Y10.68001
X2.22504Y19.31998G85X1.72507Y19.31998
X6.02503Y10.68001G85X5.52506Y10.68001
X6.02503Y19.31998G85X5.52506Y19.31998
T03
X26.1Y12.46
X26.1Y17.54
T04
X5.0Y5.0
X25.0Y5.0
X25.0Y25.0
X5.0Y25.0
M30