G04 Layer: TopLayer*
G04 EasyEDA Pro v2.2.37.3, 2025-03-15 19:37:20*
G04 Gerber Generator version 0.3*
G04 Scale: 100 percent, Rotated: No, Reflected: No*
G04 Dimensions in millimeters*
G04 Leading zeros omitted, absolute positions, 4 integers and 5 decimals*
%FSLAX45Y45*%
%MOMM*%
%ADD10C,0.2032*%
%ADD11C,1.0*%
%ADD12R,1.41X1.35001*%
%ADD13R,1.35001X1.41*%
%ADD14R,2.2X2.2*%
%ADD15C,2.2*%
%ADD16R,1.39954X1.0*%
%ADD17C,7.5033*%
%ADD18C,7.5*%
%ADD19R,1.37701X1.13254*%
%ADD20R,1.13254X1.37701*%
%ADD21R,1.2X0.8*%
%ADD22R,1.2X0.7*%
%ADD23O,1.7X1.1*%
%ADD24C,0.61*%
%ADD25C,0.254*%
%ADD26C,0.7*%
%ADD27C,0.3*%
G75*


G04 Copper Start*
G36*
G01X590159Y1315157D02*
G01X590159Y1379183D01*
G01X662501Y1379183D01*
G01X672947Y1380741D01*
G01X682485Y1385278D01*
G01X690285Y1392400D01*
G01X695669Y1401487D01*
G01X729903Y1401487D01*
G01X765698Y1365693D01*
G01X775745Y1357983D01*
G01X787446Y1353136D01*
G01X800002Y1351483D01*
G01X807557Y1351483D01*
G01X807557Y1331147D01*
G01X809310Y1320080D01*
G01X814397Y1310096D01*
G01X822320Y1302173D01*
G01X832304Y1297086D01*
G01X843371Y1295333D01*
G01X944586Y1295333D01*
G01X944586Y1094640D01*
G01X945981Y1089433D01*
G01X949793Y1085621D01*
G01X955000Y1084226D01*
G01X1030120Y1084226D01*
G01X1033699Y1084860D01*
G01X1036842Y1086686D01*
G01X1160501Y1086686D01*
G01X1170935Y1088240D01*
G01X1180464Y1092766D01*
G01X1188260Y1099872D01*
G01X1193649Y1108941D01*
G01X1196161Y1119186D01*
G01X1266359Y1119186D01*
G01X1282117Y1120962D01*
G01X1297084Y1126199D01*
G01X1310511Y1134636D01*
G01X1321724Y1145849D01*
G01X1330160Y1159275D01*
G01X1335397Y1174243D01*
G01X1337173Y1190000D01*
G01X1335397Y1205758D01*
G01X1330160Y1220725D01*
G01X1321724Y1234152D01*
G01X1310511Y1245365D01*
G01X1297084Y1253802D01*
G01X1282117Y1259039D01*
G01X1266359Y1260814D01*
G01X1196161Y1260814D01*
G01X1193649Y1271060D01*
G01X1188260Y1280129D01*
G01X1180464Y1287235D01*
G01X1170935Y1291761D01*
G01X1160501Y1293315D01*
G01X1040534Y1293315D01*
G01X1040534Y1295445D01*
G01X1043371Y1295333D01*
G01X1156625Y1295333D01*
G01X1167317Y1296966D01*
G01X1177035Y1301718D01*
G01X1184890Y1309154D01*
G01X1190167Y1318596D01*
G01X1192385Y1329183D01*
G01X1259997Y1329183D01*
G01X1275755Y1330959D01*
G01X1290723Y1336196D01*
G01X1304149Y1344633D01*
G01X1315362Y1355845D01*
G01X1323799Y1369272D01*
G01X1329036Y1384240D01*
G01X1330811Y1399997D01*
G01X1329036Y1415755D01*
G01X1323799Y1430722D01*
G01X1315362Y1444149D01*
G01X1304149Y1455362D01*
G01X1290723Y1463798D01*
G01X1275755Y1469036D01*
G01X1259997Y1470811D01*
G01X1192385Y1470811D01*
G01X1189775Y1482402D01*
G01X1183516Y1492501D01*
G01X1174298Y1499997D01*
G01X1183516Y1507493D01*
G01X1189775Y1517592D01*
G01X1192385Y1529183D01*
G01X1259997Y1529183D01*
G01X1275755Y1530958D01*
G01X1290723Y1536196D01*
G01X1304149Y1544632D01*
G01X1313937Y1554420D01*
G01X1335316Y1554420D01*
G01X1335316Y1479880D01*
G01X1336513Y1475032D01*
G01X1339829Y1471299D01*
G01X1344502Y1469539D01*
G01X1344210Y1464972D01*
G01X1344210Y1364972D01*
G01X1345963Y1353905D01*
G01X1351050Y1343921D01*
G01X1358973Y1335998D01*
G01X1368957Y1330911D01*
G01X1380024Y1329158D01*
G01X1519978Y1329158D01*
G01X1530890Y1330861D01*
G01X1540765Y1335808D01*
G01X1548662Y1343528D01*
G01X1553832Y1353287D01*
G01X1555783Y1364158D01*
G01X1585336Y1364158D01*
G01X1585336Y1353374D01*
G01X1587089Y1342307D01*
G01X1592176Y1332323D01*
G01X1600099Y1324400D01*
G01X1610083Y1319313D01*
G01X1621150Y1317560D01*
G01X1758851Y1317560D01*
G01X1769918Y1319313D01*
G01X1779902Y1324400D01*
G01X1787825Y1332323D01*
G01X1792912Y1342307D01*
G01X1794665Y1353374D01*
G01X1794665Y1466628D01*
G01X1794553Y1469466D01*
G01X1946687Y1469466D01*
G01X1946687Y1469466D01*
G01X1946687Y1349501D01*
G01X1948240Y1339066D01*
G01X1952767Y1329537D01*
G01X1959873Y1321741D01*
G01X1968943Y1316352D01*
G01X1979189Y1313840D01*
G01X1979189Y1270882D01*
G01X1980964Y1255124D01*
G01X1986201Y1240157D01*
G01X1994638Y1226730D01*
G01X2005851Y1215517D01*
G01X2019277Y1207081D01*
G01X2034245Y1201843D01*
G01X2050003Y1200068D01*
G01X2065760Y1201843D01*
G01X2080728Y1207081D01*
G01X2094154Y1215517D01*
G01X2105367Y1226730D01*
G01X2113804Y1240157D01*
G01X2119041Y1255124D01*
G01X2120817Y1270882D01*
G01X2120817Y1313840D01*
G01X2131062Y1316353D01*
G01X2140131Y1321741D01*
G01X2147236Y1329538D01*
G01X2151762Y1339067D01*
G01X2153316Y1349501D01*
G01X2153316Y1356000D01*
G01X2464186Y1356000D01*
G01X2464186Y1136000D01*
G01X2465939Y1124933D01*
G01X2471026Y1114949D01*
G01X2478949Y1107026D01*
G01X2488933Y1101939D01*
G01X2500000Y1100186D01*
G01X2720000Y1100186D01*
G01X2731067Y1101939D01*
G01X2741051Y1107026D01*
G01X2748974Y1114949D01*
G01X2754061Y1124933D01*
G01X2755814Y1136000D01*
G01X2755814Y1356000D01*
G01X2755814Y1356000D01*
G01X2754061Y1367067D01*
G01X2748974Y1377051D01*
G01X2741051Y1384974D01*
G01X2731067Y1390061D01*
G01X2720000Y1391814D01*
G01X2500000Y1391814D01*
G01X2488933Y1390061D01*
G01X2478949Y1384974D01*
G01X2471026Y1377051D01*
G01X2465939Y1367067D01*
G01X2464186Y1356000D01*
G01X2153316Y1356000D01*
G01X2153316Y1490501D01*
G01X2152675Y1497247D01*
G01X2150774Y1503752D01*
G01X2150774Y1554420D01*
G01X2149379Y1559627D01*
G01X2145567Y1563439D01*
G01X2140360Y1564834D01*
G01X1554310Y1564834D01*
G01X1555792Y1575030D01*
G01X1555792Y1675030D01*
G01X1554039Y1686097D01*
G01X1548952Y1696081D01*
G01X1541029Y1704004D01*
G01X1531045Y1709091D01*
G01X1519978Y1710844D01*
G01X1519418Y1710844D01*
G01X1519418Y1729330D01*
G01X1517642Y1745087D01*
G01X1514524Y1754000D01*
G01X2459586Y1754000D01*
G01X2461438Y1730470D01*
G01X2466948Y1707520D01*
G01X2475981Y1685714D01*
G01X2488313Y1665589D01*
G01X2503642Y1647641D01*
G01X2521589Y1632313D01*
G01X2541714Y1619980D01*
G01X2563520Y1610948D01*
G01X2586470Y1605438D01*
G01X2610000Y1603586D01*
G01X2610000Y1603586D01*
G01X2633530Y1605438D01*
G01X2656481Y1610948D01*
G01X2678287Y1619980D01*
G01X2698411Y1632313D01*
G01X2716359Y1647641D01*
G01X2731687Y1665589D01*
G01X2744020Y1685714D01*
G01X2753052Y1707520D01*
G01X2758562Y1730470D01*
G01X2760414Y1754000D01*
G01X2758562Y1777530D01*
G01X2753052Y1800480D01*
G01X2744020Y1822286D01*
G01X2731687Y1842411D01*
G01X2716359Y1860359D01*
G01X2698411Y1875687D01*
G01X2678287Y1888020D01*
G01X2656481Y1897052D01*
G01X2633530Y1902562D01*
G01X2610000Y1904414D01*
G01X2586470Y1902562D01*
G01X2563520Y1897052D01*
G01X2541714Y1888020D01*
G01X2521589Y1875687D01*
G01X2503642Y1860359D01*
G01X2488313Y1842411D01*
G01X2475981Y1822286D01*
G01X2466948Y1800480D01*
G01X2461438Y1777530D01*
G01X2459586Y1754000D01*
G01X1514524Y1754000D01*
G01X1512405Y1760055D01*
G01X1503969Y1773481D01*
G01X1492756Y1784694D01*
G01X1479329Y1793131D01*
G01X1464362Y1798368D01*
G01X1448604Y1800144D01*
G01X1432846Y1798368D01*
G01X1417879Y1793131D01*
G01X1404452Y1784694D01*
G01X1393239Y1773481D01*
G01X1384803Y1760055D01*
G01X1379565Y1745087D01*
G01X1377790Y1729330D01*
G01X1377790Y1710774D01*
G01X1367270Y1708496D01*
G01X1357903Y1703195D01*
G01X1350533Y1695351D01*
G01X1345827Y1685671D01*
G01X1344210Y1675030D01*
G01X1344210Y1575030D01*
G01X1345692Y1564834D01*
G01X1340501Y1563426D01*
G01X1336705Y1559616D01*
G01X1335316Y1554420D01*
G01X1313937Y1554420D01*
G01X1315362Y1555845D01*
G01X1323799Y1569272D01*
G01X1329036Y1584239D01*
G01X1330811Y1599997D01*
G01X1329036Y1615754D01*
G01X1323799Y1630722D01*
G01X1315362Y1644149D01*
G01X1304149Y1655361D01*
G01X1290723Y1663798D01*
G01X1275755Y1669035D01*
G01X1259997Y1670811D01*
G01X1192385Y1670811D01*
G01X1189853Y1682208D01*
G01X1183790Y1692185D01*
G01X1174841Y1699683D01*
G01X1182978Y1704619D01*
G01X1189529Y1711524D01*
G01X1194029Y1719911D01*
G01X1196161Y1729187D01*
G01X1249998Y1729187D01*
G01X1265755Y1730962D01*
G01X1280723Y1736200D01*
G01X1294149Y1744636D01*
G01X1305362Y1755849D01*
G01X1313799Y1769276D01*
G01X1319036Y1784243D01*
G01X1320812Y1800001D01*
G01X1319036Y1815759D01*
G01X1313799Y1830726D01*
G01X1305362Y1844153D01*
G01X1294149Y1855366D01*
G01X1280723Y1863802D01*
G01X1265755Y1869040D01*
G01X1249998Y1870815D01*
G01X1196161Y1870815D01*
G01X1193649Y1881061D01*
G01X1188260Y1890130D01*
G01X1180464Y1897236D01*
G01X1170935Y1901762D01*
G01X1160501Y1903315D01*
G01X1040534Y1903315D01*
G01X1040534Y1905000D01*
G01X1039139Y1910207D01*
G01X1035327Y1914019D01*
G01X1030120Y1915414D01*
G01X955000Y1915414D01*
G01X949793Y1914019D01*
G01X945981Y1910207D01*
G01X944586Y1905000D01*
G01X944586Y1704661D01*
G01X843371Y1704661D01*
G01X832304Y1702908D01*
G01X822320Y1697821D01*
G01X814397Y1689898D01*
G01X809310Y1679914D01*
G01X807557Y1668847D01*
G01X807557Y1648511D01*
G01X799995Y1648511D01*
G01X787438Y1646858D01*
G01X775738Y1642011D01*
G01X765690Y1634301D01*
G01X729903Y1598515D01*
G01X695665Y1598515D01*
G01X690281Y1607599D01*
G01X682482Y1614719D01*
G01X672945Y1619254D01*
G01X662501Y1620811D01*
G01X590159Y1620811D01*
G01X590159Y1669837D01*
G01X724950Y1669837D01*
G01X730030Y1671198D01*
G01X733749Y1674917D01*
G01X735110Y1679997D01*
G01X735110Y2034836D01*
G01X2941581Y2034836D01*
G01X2964186Y2012230D01*
G01X2964186Y981010D01*
G01X2935791Y952615D01*
G01X730159Y952615D01*
G01X730159Y1304997D01*
G01X728797Y1310077D01*
G01X725079Y1313796D01*
G01X719999Y1315157D01*
G01X590159Y1315157D01*
G37*
G54D10*
G01X590159Y1315157D02*
G01X590159Y1379183D01*
G01X662501Y1379183D01*
G03X695669Y1401487I0J35814D01*
G01X729903Y1401487D01*
G01X765698Y1365693D01*
G03X800002Y1351483I34305J34305D01*
G01X807557Y1351483D01*
G01X807557Y1331147D01*
G03X843371Y1295333I35814J0D01*
G01X944586Y1295333D01*
G01X944586Y1094640D01*
G03X955000Y1084226I10414J0D01*
G01X1030120Y1084226D01*
G03X1036842Y1086686I0J10414D01*
G01X1160501Y1086686D01*
G03X1196161Y1119186I0J35814D01*
G01X1266359Y1119186D01*
G03X1266359Y1260814I0J70814D01*
G01X1196161Y1260814D01*
G03X1160501Y1293315I-35660J-3313D01*
G01X1040534Y1293315D01*
G01X1040534Y1295445D01*
G03X1043371Y1295333I2837J35701D01*
G01X1156625Y1295333D01*
G03X1192385Y1329183I0J35814D01*
G01X1259997Y1329183D01*
G03X1259997Y1470811I0J70814D01*
G01X1192385Y1470811D01*
G03X1174298Y1499997I-35760J-1963D01*
G03X1192385Y1529183I-17674J31149D01*
G01X1259997Y1529183D01*
G03X1259997Y1670811I0J70814D01*
G01X1192385Y1670811D01*
G03X1174841Y1699683I-35760J-1963D01*
G03X1196161Y1729187I-14340J32818D01*
G01X1249998Y1729187D01*
G03X1249998Y1870815I0J70814D01*
G01X1196161Y1870815D01*
G03X1160501Y1903315I-35660J-3313D01*
G01X1040534Y1903315D01*
G01X1040534Y1905000D01*
G03X1030120Y1915414I-10414J0D01*
G01X955000Y1915414D01*
G03X944586Y1905000I0J-10414D01*
G01X944586Y1704661D01*
G01X843371Y1704661D01*
G03X807557Y1668847I0J-35814D01*
G01X807557Y1648511D01*
G01X799995Y1648511D01*
G03X765690Y1634301I0J-48514D01*
G01X729903Y1598515D01*
G01X695665Y1598515D01*
G03X662501Y1620811I-33165J-13518D01*
G01X590159Y1620811D01*
G01X590159Y1669837D01*
G01X724950Y1669837D01*
G03X735110Y1679997I0J10160D01*
G01X735110Y2034836D01*
G01X2941581Y2034836D01*
G01X2964186Y2012230D01*
G01X2964186Y981010D01*
G01X2935791Y952615D01*
G01X730159Y952615D01*
G01X730159Y1304997D01*
G03X719999Y1315157I-10160J0D01*
G01X590159Y1315157D01*
G01X1946687Y1469466D02*
G01X1946687Y1349501D01*
G03X1979189Y1313840I35814J0D01*
G01X1979189Y1270882D01*
G03X2120817Y1270882I70814J0D01*
G01X2120817Y1313840D01*
G03X2153316Y1349501I-3315J35660D01*
G01X2153316Y1490501D01*
G03X2150774Y1503752I-35814J0D01*
G01X2150774Y1554420D01*
G03X2140360Y1564834I-10414J0D01*
G01X1554310Y1564834D01*
G03X1555792Y1575030I-34332J10196D01*
G01X1555792Y1675030D01*
G03X1519978Y1710844I-35814J0D01*
G01X1519418Y1710844D01*
G01X1519418Y1729330D01*
G03X1377790Y1729330I-70814J0D01*
G01X1377790Y1710774D01*
G03X1344210Y1675030I2234J-35744D01*
G01X1344210Y1575030D01*
G03X1345692Y1564834I35814J0D01*
G03X1335316Y1554420I38J-10414D01*
G01X1335316Y1479880D01*
G03X1344502Y1469539I10414J0D01*
G03X1344210Y1464972I35522J-4567D01*
G01X1344210Y1364972D01*
G03X1380024Y1329158I35814J0D01*
G01X1519978Y1329158D01*
G03X1555783Y1364158I0J35814D01*
G01X1585336Y1364158D01*
G01X1585336Y1353374D01*
G03X1621150Y1317560I35814J0D01*
G01X1758851Y1317560D01*
G03X1794665Y1353374I0J35814D01*
G01X1794665Y1466628D01*
G03X1794553Y1469466I-35814J0D01*
G01X1946687Y1469466D01*
G01X2610000Y1603586D02*
G03X2610000Y1904414I0J150414D01*
G03X2610000Y1603586I0J-150414D01*
G01X2755814Y1356000D02*
G03X2720000Y1391814I-35814J0D01*
G01X2500000Y1391814D01*
G03X2464186Y1356000I0J-35814D01*
G01X2464186Y1136000D01*
G03X2500000Y1100186I35814J0D01*
G01X2720000Y1100186D01*
G03X2755814Y1136000I0J35814D01*
G01X2755814Y1356000D01*
G54D11*
G01X2610000Y1644254D02*
G01X2610000Y1613746D01*
G01X2610000Y1863746D02*
G01X2610000Y1894254D01*
G01X2500254Y1754000D02*
G01X2469746Y1754000D01*
G01X2719746Y1754000D02*
G01X2750254Y1754000D01*
G04 Copper End*

G04 Pad Start*
G54D12*
G01X890001Y1800001D03*
G01X1090000Y1800001D03*
G01X890001Y1190000D03*
G01X1090000Y1190000D03*
G54D13*
G01X2050001Y1620001D03*
G01X2050001Y1420001D03*
G54D14*
G01X2610000Y1246000D03*
G54D15*
G01X2610000Y1754000D03*
G54D16*
G01X1450001Y1625030D03*
G01X1450001Y1414972D03*
G54D18*
G01X500000Y500000D03*
G01X2500000Y500000D03*
G01X2500000Y2500000D03*
G01X500000Y2500000D03*
G54D19*
G01X1690001Y1610001D03*
G01X1690001Y1410001D03*
G54D20*
G01X899998Y1399997D03*
G01X1099998Y1399997D03*
G01X899998Y1599997D03*
G01X1099998Y1599997D03*
G54D21*
G01X602501Y1769986D03*
G54D22*
G01X602501Y1649997D03*
G01X602501Y1549997D03*
G01X602501Y1449997D03*
G01X602501Y1349997D03*
G54D21*
G01X602501Y1230008D03*
G54D23*
G01X197498Y1068007D03*
G01X197498Y1931988D03*
G01X577507Y1068007D03*
G01X577507Y1931988D03*
G04 Pad End*

G04 Via Start*
G54D24*
G01X1249998Y1800001D03*
G01X1266359Y1190000D03*
G01X1448604Y1729330D03*
G01X2050003Y1270882D03*
G01X440004Y1299997D03*
G01X499999Y1230008D03*
G01X440004Y1709992D03*
G01X499999Y1769986D03*
G01X1259997Y1599997D03*
G01X1259997Y1399997D03*
G04 Via End*

G04 Track Start*
G54D25*
G01X602502Y1550001D02*
G01X749999Y1550001D01*
G01X799995Y1599997D01*
G01X899998Y1599997D01*
G01X602502Y1450001D02*
G01X749999Y1450001D01*
G01X800002Y1399997D01*
G01X899998Y1399997D01*
G54D26*
G01X1090000Y1800001D02*
G01X1249998Y1800001D01*
G01X1106362Y1190000D02*
G01X1266359Y1190000D01*
G01X1448604Y1619332D02*
G01X1448604Y1729330D01*
G01X2050003Y1430879D02*
G01X2050003Y1270882D01*
G01X499999Y1230008D02*
G01X440004Y1290003D01*
G01X602501Y1230008D02*
G01X499999Y1230008D01*
G01X440004Y1290003D02*
G01X440004Y1299997D01*
G01X602501Y1769986D02*
G01X499999Y1769986D01*
G01X440004Y1709992D01*
G54D27*
G01X1450001Y1414972D02*
G01X1685030Y1414972D01*
G01X1690001Y1410001D01*
G54D26*
G01X1259997Y1599997D02*
G01X1099998Y1599997D01*
G01X1099998Y1399997D02*
G01X1259997Y1399997D01*
G04 Track End*

M02*

