G04 Layer: TopSilkscreenLayer*
G04 EasyEDA Pro v2.2.37.3, 2025-03-15 19:37:20*
G04 Gerber Generator version 0.3*
G04 Scale: 100 percent, Rotated: No, Reflected: No*
G04 Dimensions in millimeters*
G04 Leading zeros omitted, absolute positions, 4 integers and 5 decimals*
%FSLAX45Y45*%
%MOMM*%
%ADD10C,0.152*%
%ADD11C,0.5*%
%ADD12C,0.15*%
%ADD13C,0.1524*%
%ADD14C,0.254*%
%ADD15C,0.2539*%
%ADD16C,0.25*%
G75*


G04 Text Start*
G54D10*
G01X112620Y2109230D02*
G01X112620Y2044206D01*
G01X142592Y2109230D02*
G01X142592Y2044206D01*
G01X142592Y2109230D02*
G01X186026Y2044206D01*
G01X186026Y2109230D02*
G01X186026Y2044206D01*
G01X2756157Y2144230D02*
G01X2750061Y2141182D01*
G01X2743711Y2135086D01*
G01X2740663Y2128736D01*
G01X2737615Y2119592D01*
G01X2737615Y2104098D01*
G01X2740663Y2094700D01*
G01X2743711Y2088604D01*
G01X2750061Y2082254D01*
G01X2756157Y2079206D01*
G01X2768603Y2079206D01*
G01X2774699Y2082254D01*
G01X2781049Y2088604D01*
G01X2784097Y2094700D01*
G01X2787145Y2104098D01*
G01X2787145Y2119592D01*
G01X2784097Y2128736D01*
G01X2781049Y2135086D01*
G01X2774699Y2141182D01*
G01X2768603Y2144230D01*
G01X2756157Y2144230D01*
G01X2817117Y2144230D02*
G01X2817117Y2097748D01*
G01X2820419Y2088604D01*
G01X2826515Y2082254D01*
G01X2835913Y2079206D01*
G01X2842009Y2079206D01*
G01X2851153Y2082254D01*
G01X2857503Y2088604D01*
G01X2860551Y2097748D01*
G01X2860551Y2144230D01*
G01X2912367Y2144230D02*
G01X2912367Y2079206D01*
G01X2890523Y2144230D02*
G01X2933957Y2144230D01*
G01X1265683Y1947080D02*
G01X1265683Y1882056D01*
G01X1265683Y1947080D02*
G01X1293623Y1947080D01*
G01X1302767Y1944032D01*
G01X1305815Y1940984D01*
G01X1309117Y1934888D01*
G01X1309117Y1925490D01*
G01X1305815Y1919394D01*
G01X1302767Y1916092D01*
G01X1293623Y1913044D01*
G01X1265683Y1913044D01*
G01X1357885Y1947080D02*
G01X1351535Y1944032D01*
G01X1345439Y1937936D01*
G01X1342391Y1931586D01*
G01X1339089Y1922442D01*
G01X1339089Y1906948D01*
G01X1342391Y1897550D01*
G01X1345439Y1891454D01*
G01X1351535Y1885104D01*
G01X1357885Y1882056D01*
G01X1370077Y1882056D01*
G01X1376427Y1885104D01*
G01X1382523Y1891454D01*
G01X1385571Y1897550D01*
G01X1388619Y1906948D01*
G01X1388619Y1922442D01*
G01X1385571Y1931586D01*
G01X1382523Y1937936D01*
G01X1376427Y1944032D01*
G01X1370077Y1947080D01*
G01X1357885Y1947080D01*
G01X1418591Y1947080D02*
G01X1434085Y1882056D01*
G01X1449579Y1947080D02*
G01X1434085Y1882056D01*
G01X1449579Y1947080D02*
G01X1465073Y1882056D01*
G01X1480567Y1947080D02*
G01X1465073Y1882056D01*
G01X1510539Y1947080D02*
G01X1510539Y1882056D01*
G01X1510539Y1947080D02*
G01X1550925Y1947080D01*
G01X1510539Y1916092D02*
G01X1535431Y1916092D01*
G01X1510539Y1882056D02*
G01X1550925Y1882056D01*
G01X1580897Y1947080D02*
G01X1580897Y1882056D01*
G01X1580897Y1947080D02*
G01X1608837Y1947080D01*
G01X1618235Y1944032D01*
G01X1621283Y1940984D01*
G01X1624331Y1934888D01*
G01X1624331Y1928538D01*
G01X1621283Y1922442D01*
G01X1618235Y1919394D01*
G01X1608837Y1916092D01*
G01X1580897Y1916092D01*
G01X1602741Y1916092D02*
G01X1624331Y1882056D01*
G01X1359583Y1852080D02*
G01X1359583Y1787056D01*
G01X1359583Y1787056D02*
G01X1396667Y1787056D01*
G01X1426639Y1852080D02*
G01X1426639Y1787056D01*
G01X1426639Y1852080D02*
G01X1467025Y1852080D01*
G01X1426639Y1821092D02*
G01X1451531Y1821092D01*
G01X1426639Y1787056D02*
G01X1467025Y1787056D01*
G01X1496997Y1852080D02*
G01X1496997Y1787056D01*
G01X1496997Y1852080D02*
G01X1518841Y1852080D01*
G01X1527985Y1849032D01*
G01X1534335Y1842936D01*
G01X1537383Y1836586D01*
G01X1540431Y1827442D01*
G01X1540431Y1811948D01*
G01X1537383Y1802550D01*
G01X1534335Y1796454D01*
G01X1527985Y1790104D01*
G01X1518841Y1787056D01*
G01X1496997Y1787056D01*
G54D11*
G01X2054942Y1935214D02*
G01X2054942Y1794752D01*
G01X1984584Y1865110D02*
G01X2125300Y1865110D01*
G01X1979591Y1108029D02*
G01X2120307Y1108029D01*
G54D12*
G01X938383Y2526035D02*
G01X985119Y2526035D01*
G01X985119Y2533909D01*
G01X981309Y2541783D01*
G01X977245Y2545593D01*
G01X969625Y2549403D01*
G01X957687Y2549403D01*
G01X950067Y2545593D01*
G01X942193Y2537719D01*
G01X938383Y2526035D01*
G01X938383Y2518161D01*
G01X942193Y2506477D01*
G01X950067Y2498857D01*
G01X957687Y2494793D01*
G01X969625Y2494793D01*
G01X977245Y2498857D01*
G01X985119Y2506477D01*
G01X1061827Y2549403D02*
G01X1018901Y2494793D01*
G01X1018901Y2549403D02*
G01X1061827Y2549403D01*
G01X1018901Y2494793D02*
G01X1061827Y2494793D01*
G01X1095609Y2576835D02*
G01X1095609Y2494793D01*
G01X1095609Y2494793D02*
G01X1142345Y2494793D01*
G01X1176127Y2526035D02*
G01X1222863Y2526035D01*
G01X1222863Y2533909D01*
G01X1219053Y2541783D01*
G01X1215243Y2545593D01*
G01X1207369Y2549403D01*
G01X1195685Y2549403D01*
G01X1187811Y2545593D01*
G01X1179937Y2537719D01*
G01X1176127Y2526035D01*
G01X1176127Y2518161D01*
G01X1179937Y2506477D01*
G01X1187811Y2498857D01*
G01X1195685Y2494793D01*
G01X1207369Y2494793D01*
G01X1215243Y2498857D01*
G01X1222863Y2506477D01*
G01X1256645Y2549403D02*
G01X1256645Y2494793D01*
G01X1256645Y2533909D02*
G01X1268329Y2545593D01*
G01X1276203Y2549403D01*
G01X1287887Y2549403D01*
G01X1295761Y2545593D01*
G01X1299571Y2533909D01*
G01X1299571Y2494793D01*
G01X1299571Y2533909D02*
G01X1311255Y2545593D01*
G01X1319129Y2549403D01*
G01X1330813Y2549403D01*
G01X1338687Y2545593D01*
G01X1342497Y2533909D01*
G01X1342497Y2494793D01*
G01X1395837Y2549403D02*
G01X1387963Y2545593D01*
G01X1380089Y2537719D01*
G01X1376279Y2526035D01*
G01X1376279Y2518161D01*
G01X1380089Y2506477D01*
G01X1387963Y2498857D01*
G01X1395837Y2494793D01*
G01X1407521Y2494793D01*
G01X1415395Y2498857D01*
G01X1423015Y2506477D01*
G01X1427079Y2518161D01*
G01X1427079Y2526035D01*
G01X1423015Y2537719D01*
G01X1415395Y2545593D01*
G01X1407521Y2549403D01*
G01X1395837Y2549403D01*
G01X1460861Y2549403D02*
G01X1460861Y2494793D01*
G01X1460861Y2533909D02*
G01X1472545Y2545593D01*
G01X1480419Y2549403D01*
G01X1492103Y2549403D01*
G01X1499977Y2545593D01*
G01X1503787Y2533909D01*
G01X1503787Y2494793D01*
G01X1592179Y2565151D02*
G01X1584305Y2573025D01*
G01X1572621Y2576835D01*
G01X1557127Y2576835D01*
G01X1545443Y2573025D01*
G01X1537569Y2565151D01*
G01X1537569Y2557277D01*
G01X1541379Y2549403D01*
G01X1545443Y2545593D01*
G01X1553063Y2541783D01*
G01X1576685Y2533909D01*
G01X1584305Y2530099D01*
G01X1588369Y2526035D01*
G01X1592179Y2518161D01*
G01X1592179Y2506477D01*
G01X1584305Y2498857D01*
G01X1572621Y2494793D01*
G01X1557127Y2494793D01*
G01X1545443Y2498857D01*
G01X1537569Y2506477D01*
G01X1672697Y2549403D02*
G01X1672697Y2467615D01*
G01X1672697Y2537719D02*
G01X1665077Y2545593D01*
G01X1657203Y2549403D01*
G01X1645519Y2549403D01*
G01X1637645Y2545593D01*
G01X1629771Y2537719D01*
G01X1625961Y2526035D01*
G01X1625961Y2518161D01*
G01X1629771Y2506477D01*
G01X1637645Y2498857D01*
G01X1645519Y2494793D01*
G01X1657203Y2494793D01*
G01X1665077Y2498857D01*
G01X1672697Y2506477D01*
G01X1706479Y2549403D02*
G01X1706479Y2510541D01*
G01X1710289Y2498857D01*
G01X1718163Y2494793D01*
G01X1729847Y2494793D01*
G01X1737721Y2498857D01*
G01X1749405Y2510541D01*
G01X1749405Y2549403D02*
G01X1749405Y2494793D01*
G01X1783187Y2526035D02*
G01X1829923Y2526035D01*
G01X1829923Y2533909D01*
G01X1826113Y2541783D01*
G01X1822303Y2545593D01*
G01X1814429Y2549403D01*
G01X1802745Y2549403D01*
G01X1794871Y2545593D01*
G01X1786997Y2537719D01*
G01X1783187Y2526035D01*
G01X1783187Y2518161D01*
G01X1786997Y2506477D01*
G01X1794871Y2498857D01*
G01X1802745Y2494793D01*
G01X1814429Y2494793D01*
G01X1822303Y2498857D01*
G01X1829923Y2506477D01*
G01X1863705Y2526035D02*
G01X1910441Y2526035D01*
G01X1910441Y2533909D01*
G01X1906631Y2541783D01*
G01X1902821Y2545593D01*
G01X1894947Y2549403D01*
G01X1883263Y2549403D01*
G01X1875389Y2545593D01*
G01X1867515Y2537719D01*
G01X1863705Y2526035D01*
G01X1863705Y2518161D01*
G01X1867515Y2506477D01*
G01X1875389Y2498857D01*
G01X1883263Y2494793D01*
G01X1894947Y2494793D01*
G01X1902821Y2498857D01*
G01X1910441Y2506477D01*
G01X1987149Y2549403D02*
G01X1944223Y2494793D01*
G01X1944223Y2549403D02*
G01X1987149Y2549403D01*
G01X1944223Y2494793D02*
G01X1987149Y2494793D01*
G01X2024741Y2549403D02*
G01X2048363Y2494793D01*
G01X2071731Y2549403D02*
G01X2048363Y2494793D01*
G01X2040489Y2479299D01*
G01X2032615Y2471425D01*
G01X2024741Y2467615D01*
G01X2020931Y2467615D01*
G54D13*
G01X711258Y1814098D02*
G01X704908Y1811050D01*
G01X698812Y1804700D01*
G01X695764Y1798604D01*
G01X695764Y1786158D01*
G01X698812Y1780062D01*
G01X704908Y1773712D01*
G01X711258Y1770664D01*
G01X720402Y1767616D01*
G01X735896Y1767616D01*
G01X745294Y1770664D01*
G01X751390Y1773712D01*
G01X757740Y1780062D01*
G01X760788Y1786158D01*
G01X760788Y1798604D01*
G01X757740Y1804700D01*
G01X751390Y1811050D01*
G01X745294Y1814098D01*
G01X708210Y1844324D02*
G01X704908Y1850420D01*
G01X695764Y1859564D01*
G01X760788Y1859564D01*
G01X711258Y1194100D02*
G01X704908Y1191052D01*
G01X698812Y1184702D01*
G01X695764Y1178606D01*
G01X695764Y1166160D01*
G01X698812Y1160064D01*
G01X704908Y1153714D01*
G01X711258Y1150666D01*
G01X720402Y1147618D01*
G01X735896Y1147618D01*
G01X745294Y1150666D01*
G01X751390Y1153714D01*
G01X757740Y1160064D01*
G01X760788Y1166160D01*
G01X760788Y1178606D01*
G01X757740Y1184702D01*
G01X751390Y1191052D01*
G01X745294Y1194100D01*
G01X711258Y1227374D02*
G01X708210Y1227374D01*
G01X701860Y1230422D01*
G01X698812Y1233470D01*
G01X695764Y1239566D01*
G01X695764Y1252012D01*
G01X698812Y1258362D01*
G01X701860Y1261410D01*
G01X708210Y1264458D01*
G01X714306Y1264458D01*
G01X720402Y1261410D01*
G01X729800Y1255060D01*
G01X760788Y1224326D01*
G01X760788Y1267506D01*
G01X1866256Y1514099D02*
G01X1859906Y1511051D01*
G01X1853810Y1504701D01*
G01X1850762Y1498605D01*
G01X1850762Y1486159D01*
G01X1853810Y1480063D01*
G01X1859906Y1473713D01*
G01X1866256Y1470665D01*
G01X1875400Y1467617D01*
G01X1890894Y1467617D01*
G01X1900292Y1470665D01*
G01X1906388Y1473713D01*
G01X1912738Y1480063D01*
G01X1915786Y1486159D01*
G01X1915786Y1498605D01*
G01X1912738Y1504701D01*
G01X1906388Y1511051D01*
G01X1900292Y1514099D01*
G01X1850762Y1550421D02*
G01X1850762Y1584457D01*
G01X1875400Y1565915D01*
G01X1875400Y1575059D01*
G01X1878448Y1581409D01*
G01X1881750Y1584457D01*
G01X1890894Y1587505D01*
G01X1897244Y1587505D01*
G01X1906388Y1584457D01*
G01X1912738Y1578361D01*
G01X1915786Y1568963D01*
G01X1915786Y1559565D01*
G01X1912738Y1550421D01*
G01X1909436Y1547373D01*
G01X1903340Y1544325D01*
G01X2868602Y904232D02*
G01X2868602Y854702D01*
G01X2865554Y845558D01*
G01X2862506Y842256D01*
G01X2856156Y839208D01*
G01X2850060Y839208D01*
G01X2843710Y842256D01*
G01X2840662Y845558D01*
G01X2837614Y854702D01*
G01X2837614Y861052D01*
G01X2901876Y888738D02*
G01X2901876Y891786D01*
G01X2904924Y898136D01*
G01X2907972Y901184D01*
G01X2914068Y904232D01*
G01X2926514Y904232D01*
G01X2932864Y901184D01*
G01X2935912Y898136D01*
G01X2938960Y891786D01*
G01X2938960Y885690D01*
G01X2935912Y879594D01*
G01X2929562Y870196D01*
G01X2898828Y839208D01*
G01X2942008Y839208D01*
G01X1425763Y1057618D02*
G01X1490787Y1057618D01*
G01X1490787Y1057618D02*
G01X1490787Y1094702D01*
G01X1425763Y1124928D02*
G01X1490787Y1124928D01*
G01X1425763Y1124928D02*
G01X1425763Y1165060D01*
G01X1456751Y1124928D02*
G01X1456751Y1149566D01*
G01X1490787Y1124928D02*
G01X1490787Y1165060D01*
G01X1425763Y1195286D02*
G01X1490787Y1195286D01*
G01X1425763Y1195286D02*
G01X1425763Y1216876D01*
G01X1428811Y1226020D01*
G01X1434907Y1232370D01*
G01X1441257Y1235418D01*
G01X1450401Y1238466D01*
G01X1465895Y1238466D01*
G01X1475293Y1235418D01*
G01X1481389Y1232370D01*
G01X1487739Y1226020D01*
G01X1490787Y1216876D01*
G01X1490787Y1195286D01*
G01X1438209Y1268692D02*
G01X1434907Y1274788D01*
G01X1425763Y1283932D01*
G01X1490787Y1283932D01*
G01X787620Y164234D02*
G01X787620Y99210D01*
G01X787620Y164234D02*
G01X812512Y99210D01*
G01X837150Y164234D02*
G01X812512Y99210D01*
G01X837150Y164234D02*
G01X837150Y99210D01*
G01X867376Y164234D02*
G01X867376Y99210D01*
G01X910556Y164234D02*
G01X910556Y99210D01*
G01X867376Y133246D02*
G01X910556Y133246D01*
G01X940782Y151788D02*
G01X946878Y155090D01*
G01X956022Y164234D01*
G01X956022Y99210D01*
G01X1987621Y194234D02*
G01X1987621Y129210D01*
G01X1987621Y194234D02*
G01X2012513Y129210D01*
G01X2037151Y194234D02*
G01X2012513Y129210D01*
G01X2037151Y194234D02*
G01X2037151Y129210D01*
G01X2067377Y194234D02*
G01X2067377Y129210D01*
G01X2110557Y194234D02*
G01X2110557Y129210D01*
G01X2067377Y163246D02*
G01X2110557Y163246D01*
G01X2143831Y178740D02*
G01X2143831Y181788D01*
G01X2146879Y188138D01*
G01X2149927Y191186D01*
G01X2156023Y194234D01*
G01X2168469Y194234D01*
G01X2174819Y191186D01*
G01X2177867Y188138D01*
G01X2180915Y181788D01*
G01X2180915Y175692D01*
G01X2177867Y169596D01*
G01X2171517Y160198D01*
G01X2140783Y129210D01*
G01X2183963Y129210D01*
G01X2027621Y2924235D02*
G01X2027621Y2859211D01*
G01X2027621Y2924235D02*
G01X2052513Y2859211D01*
G01X2077151Y2924235D02*
G01X2052513Y2859211D01*
G01X2077151Y2924235D02*
G01X2077151Y2859211D01*
G01X2107377Y2924235D02*
G01X2107377Y2859211D01*
G01X2150557Y2924235D02*
G01X2150557Y2859211D01*
G01X2107377Y2893247D02*
G01X2150557Y2893247D01*
G01X2186879Y2924235D02*
G01X2220915Y2924235D01*
G01X2202373Y2899597D01*
G01X2211517Y2899597D01*
G01X2217867Y2896549D01*
G01X2220915Y2893247D01*
G01X2223963Y2884103D01*
G01X2223963Y2877753D01*
G01X2220915Y2868609D01*
G01X2214819Y2862259D01*
G01X2205421Y2859211D01*
G01X2196023Y2859211D01*
G01X2186879Y2862259D01*
G01X2183831Y2865561D01*
G01X2180783Y2871657D01*
G01X757621Y2924235D02*
G01X757621Y2859211D01*
G01X757621Y2924235D02*
G01X782513Y2859211D01*
G01X807151Y2924235D02*
G01X782513Y2859211D01*
G01X807151Y2924235D02*
G01X807151Y2859211D01*
G01X837377Y2924235D02*
G01X837377Y2859211D01*
G01X880557Y2924235D02*
G01X880557Y2859211D01*
G01X837377Y2893247D02*
G01X880557Y2893247D01*
G01X941517Y2924235D02*
G01X910783Y2881055D01*
G01X957011Y2881055D01*
G01X941517Y2924235D02*
G01X941517Y2859211D01*
G01X1660762Y1192618D02*
G01X1725786Y1192618D01*
G01X1660762Y1192618D02*
G01X1660762Y1220558D01*
G01X1663810Y1229702D01*
G01X1666858Y1232750D01*
G01X1673208Y1236052D01*
G01X1679304Y1236052D01*
G01X1685400Y1232750D01*
G01X1688448Y1229702D01*
G01X1691750Y1220558D01*
G01X1691750Y1192618D01*
G01X1691750Y1214208D02*
G01X1725786Y1236052D01*
G01X1673208Y1266278D02*
G01X1669906Y1272374D01*
G01X1660762Y1281518D01*
G01X1725786Y1281518D01*
G01X715764Y1352617D02*
G01X780788Y1352617D01*
G01X715764Y1352617D02*
G01X715764Y1380557D01*
G01X718812Y1389701D01*
G01X721860Y1392749D01*
G01X728210Y1396051D01*
G01X734306Y1396051D01*
G01X740402Y1392749D01*
G01X743450Y1389701D01*
G01X746752Y1380557D01*
G01X746752Y1352617D01*
G01X746752Y1374207D02*
G01X780788Y1396051D01*
G01X731258Y1429325D02*
G01X728210Y1429325D01*
G01X721860Y1432373D01*
G01X718812Y1435421D01*
G01X715764Y1441517D01*
G01X715764Y1453963D01*
G01X718812Y1460313D01*
G01X721860Y1463361D01*
G01X728210Y1466409D01*
G01X734306Y1466409D01*
G01X740402Y1463361D01*
G01X749800Y1457011D01*
G01X780788Y1426277D01*
G01X780788Y1469457D01*
G01X710764Y1552617D02*
G01X775788Y1552617D01*
G01X710764Y1552617D02*
G01X710764Y1580557D01*
G01X713812Y1589701D01*
G01X716860Y1592749D01*
G01X723210Y1596051D01*
G01X729306Y1596051D01*
G01X735402Y1592749D01*
G01X738450Y1589701D01*
G01X741752Y1580557D01*
G01X741752Y1552617D01*
G01X741752Y1574207D02*
G01X775788Y1596051D01*
G01X710764Y1632373D02*
G01X710764Y1666409D01*
G01X735402Y1647867D01*
G01X735402Y1657011D01*
G01X738450Y1663361D01*
G01X741752Y1666409D01*
G01X750896Y1669457D01*
G01X757246Y1669457D01*
G01X766390Y1666409D01*
G01X772740Y1660313D01*
G01X775788Y1650915D01*
G01X775788Y1641517D01*
G01X772740Y1632373D01*
G01X769438Y1629325D01*
G01X763342Y1626277D01*
G01X188608Y954232D02*
G01X188608Y904702D01*
G01X185560Y895558D01*
G01X182512Y892256D01*
G01X176162Y889208D01*
G01X170066Y889208D01*
G01X163716Y892256D01*
G01X160668Y895558D01*
G01X157620Y904702D01*
G01X157620Y911052D01*
G01X218834Y941786D02*
G01X224930Y945088D01*
G01X234074Y954232D01*
G01X234074Y889208D01*
G04 Text End*

G04 PolygonModel Start*
G01X808881Y1709640D02*
G01X949881Y1709640D01*
G01X949881Y1890361D02*
G01X808881Y1890361D01*
G01X793641Y1875121D02*
G01X793641Y1724880D01*
G01X1171120Y1709640D02*
G01X1030120Y1709640D01*
G01X1030120Y1890361D02*
G01X1171120Y1890361D01*
G01X1186360Y1875121D02*
G01X1186360Y1724880D01*
G01X808881Y1890361D02*
G03X793641Y1875121I0J-15240D01*
G01X793641Y1724880D02*
G03X808881Y1709640I15240J0D01*
G01X1171120Y1890361D02*
G02X1186360Y1875121I0J-15240D01*
G01X1186360Y1724880D02*
G02X1171120Y1709640I-15240J0D01*
G01X808881Y1099640D02*
G01X949881Y1099640D01*
G01X949881Y1280361D02*
G01X808881Y1280361D01*
G01X793641Y1265121D02*
G01X793641Y1114880D01*
G01X1171120Y1099640D02*
G01X1030120Y1099640D01*
G01X1030120Y1280361D02*
G01X1171120Y1280361D01*
G01X1186360Y1265121D02*
G01X1186360Y1114880D01*
G01X808881Y1280361D02*
G03X793641Y1265121I0J-15240D01*
G01X793641Y1114880D02*
G03X808881Y1099640I15240J0D01*
G01X1171120Y1280361D02*
G02X1186360Y1265121I0J-15240D01*
G01X1186360Y1114880D02*
G02X1171120Y1099640I-15240J0D01*
G01X1959641Y1701121D02*
G01X1959641Y1560120D01*
G01X2140362Y1560120D02*
G01X2140362Y1701121D01*
G01X2125122Y1716361D02*
G01X1974881Y1716361D01*
G01X1959641Y1338881D02*
G01X1959641Y1479881D01*
G01X2140362Y1479881D02*
G01X2140362Y1338881D01*
G01X2125122Y1323641D02*
G01X1974881Y1323641D01*
G01X2140362Y1701121D02*
G03X2125122Y1716361I-15240J0D01*
G01X1974881Y1716361D02*
G03X1959641Y1701121I0J-15240D01*
G01X2140362Y1338881D02*
G02X2125122Y1323641I-15240J0D01*
G01X1974881Y1323641D02*
G02X1959641Y1338881I0J15240D01*
G54D14*
G01X3014998Y1654285D02*
G01X2810000Y1654285D01*
G01X2810000Y1654285D02*
G01X2810000Y1854000D01*
G01X2810000Y1854000D02*
G01X3014998Y1854000D01*
G01X3014998Y1146285D02*
G01X2810000Y1146285D01*
G01X2810000Y1146285D02*
G01X2810000Y1346000D01*
G01X2810000Y1346000D02*
G01X3014998Y1346000D01*
G01X2360001Y2008000D02*
G01X2360001Y992000D01*
G01X2205002Y992000D02*
G01X3014998Y992000D01*
G01X3014998Y992000D02*
G01X3014998Y1730635D01*
G01X3014998Y1730635D02*
G01X3014874Y2008000D01*
G01X3014874Y2008000D02*
G01X2205002Y2008000D01*
G01X2205002Y2008000D02*
G01X2205002Y1638981D01*
G01X2205002Y1638981D02*
G01X2205002Y992000D01*
G36*
G01X3014998Y1246000D02*
G01X3014998Y1226000D01*
G01X2910000Y1226000D01*
G01X2910000Y1186000D01*
G01X2850000Y1246000D01*
G01X2910000Y1306000D01*
G01X2910000Y1266000D01*
G01X3014998Y1266000D01*
G01X3014998Y1246000D01*
G37*
G36*
G01X3014998Y1754000D02*
G01X3014998Y1734000D01*
G01X2910000Y1734000D01*
G01X2910000Y1694000D01*
G01X2850000Y1754000D01*
G01X2910000Y1814000D01*
G01X2910000Y1774000D01*
G01X3014998Y1774000D01*
G01X3014998Y1754000D01*
G37*
G01X1500001Y1500001D02*
G01X1460001Y1540001D01*
G01X1460001Y1540001D02*
G01X1450001Y1550001D01*
G01X1450001Y1550001D02*
G01X1439976Y1540001D01*
G01X1439976Y1540001D02*
G01X1399976Y1500001D01*
G01X1500001Y1500001D02*
G01X1399976Y1500001D01*
G01X1348274Y1475678D02*
G01X1348274Y1320738D01*
G01X1348274Y1320738D02*
G01X1551474Y1320738D01*
G01X1551474Y1320738D02*
G01X1551474Y1475678D01*
G01X1345734Y1554418D02*
G01X1345734Y1701738D01*
G01X1345734Y1701738D02*
G01X1386374Y1742378D01*
G01X1386374Y1742378D02*
G01X1513374Y1742378D01*
G01X1513374Y1742378D02*
G01X1551474Y1704278D01*
G01X1551474Y1704278D02*
G01X1551474Y1551878D01*
G54D13*
G01X1781710Y1557621D02*
G01X1781710Y1686114D01*
G01X1781710Y1686114D02*
G01X1598292Y1686114D01*
G01X1598292Y1686114D02*
G01X1598292Y1557621D01*
G01X1781710Y1462381D02*
G01X1781710Y1333887D01*
G01X1781710Y1333887D02*
G01X1598292Y1333887D01*
G01X1598292Y1333887D02*
G01X1598292Y1462381D01*
G01X952378Y1491706D02*
G01X823885Y1491706D01*
G01X823885Y1491706D02*
G01X823885Y1308288D01*
G01X823885Y1308288D02*
G01X952378Y1308288D01*
G01X1047618Y1491706D02*
G01X1176111Y1491706D01*
G01X1176111Y1491706D02*
G01X1176111Y1308288D01*
G01X1176111Y1308288D02*
G01X1047618Y1308288D01*
G01X952378Y1691706D02*
G01X823885Y1691706D01*
G01X823885Y1691706D02*
G01X823885Y1508288D01*
G01X823885Y1508288D02*
G01X952378Y1508288D01*
G01X1047618Y1691706D02*
G01X1176111Y1691706D01*
G01X1176111Y1691706D02*
G01X1176111Y1508288D01*
G01X1176111Y1508288D02*
G01X1047618Y1508288D01*
G54D16*
G01X617502Y1167084D02*
G01X617502Y1145921D01*
G01X617502Y1854073D02*
G01X617502Y1832910D01*
G01X457502Y1949996D02*
G01X461711Y1949996D01*
G01X457502Y1949996D02*
G01X313271Y1949996D01*
G01X317503Y1049998D02*
G01X462511Y1049998D01*
G01X77381Y1950072D02*
G01X79667Y1950072D01*
G01X79667Y1950072D02*
G01X-62573Y1950072D01*
G01X-62573Y1950072D02*
G01X-62573Y1049896D01*
G01X-62573Y1049896D02*
G01X77381Y1049896D01*
G01X477502Y1539999D02*
G01X497502Y1539999D01*
G01X437502Y1400000D02*
G01X477502Y1400000D01*
G01X477502Y1400000D02*
G01X477502Y1460000D01*
G01X477502Y1460000D02*
G01X497502Y1460000D01*
G01X437502Y1599999D02*
G01X477502Y1599999D01*
G01X477502Y1599999D02*
G01X477502Y1539999D01*
G01X437502Y1601000D02*
G01X437502Y1398999D01*
G54D14*
G01X54178Y1781764D02*
G01X304368Y1731980D01*
G01X304368Y1731980D02*
G01X304368Y1601932D01*
G01X304368Y1601932D02*
G01X54178Y1551894D01*
G01X54178Y1551894D02*
G01X54178Y1601424D01*
G01X54178Y1601424D02*
G01X264236Y1641302D01*
G01X264236Y1641302D02*
G01X264236Y1694134D01*
G01X264236Y1694134D02*
G01X54178Y1734266D01*
G01X54178Y1734266D02*
G01X54178Y1781764D01*
G01X184226Y1751792D02*
G01X184226Y1711914D01*
G01X184257Y1621856D02*
G01X184257Y1581856D01*
G01X184765Y1294178D02*
G01X184765Y1254178D01*
G01X184734Y1424115D02*
G01X184734Y1384237D01*
G01X54686Y1454087D02*
G01X304876Y1404303D01*
G01X304876Y1404303D02*
G01X304876Y1274255D01*
G01X304876Y1274255D02*
G01X54686Y1224217D01*
G01X54686Y1224217D02*
G01X54686Y1273747D01*
G01X54686Y1273747D02*
G01X264744Y1313625D01*
G01X264744Y1313625D02*
G01X264744Y1366457D01*
G01X264744Y1366457D02*
G01X54686Y1406589D01*
G01X54686Y1406589D02*
G01X54686Y1454087D01*

M02*

