G04 Layer: TopPasteMaskLayer*
G04 EasyEDA Pro v2.2.37.3, 2025-03-15 19:37:20*
G04 Gerber Generator version 0.3*
G04 Scale: 100 percent, Rotated: No, Reflected: No*
G04 Dimensions in millimeters*
G04 Leading zeros omitted, absolute positions, 4 integers and 5 decimals*
%FSLAX45Y45*%
%MOMM*%
%ADD10R,1.39954X1.0*%
G75*


G04 PolygonModel Start*
G36*
G01X1160498Y1864001D02*
G01X1160498Y1736003D01*
G01X1155497Y1731002D01*
G01X1040496Y1731002D01*
G01X1035497Y1736003D01*
G01X1034994Y1777006D01*
G01X1079995Y1777006D01*
G01X1079995Y1822005D01*
G01X1035995Y1822005D01*
G01X1035497Y1864001D01*
G01X1040496Y1869003D01*
G01X1155497Y1869003D01*
G01X1160498Y1864001D01*
G37*
G36*
G01X819503Y1736001D02*
G01X819503Y1863999D01*
G01X824504Y1869000D01*
G01X939505Y1869000D01*
G01X944504Y1863999D01*
G01X945007Y1822996D01*
G01X900006Y1822996D01*
G01X900006Y1777997D01*
G01X944006Y1777997D01*
G01X944504Y1736001D01*
G01X939505Y1730999D01*
G01X824504Y1730999D01*
G01X819503Y1736001D01*
G37*
G36*
G01X1160498Y1254001D02*
G01X1160498Y1126003D01*
G01X1155497Y1121001D01*
G01X1040496Y1121001D01*
G01X1035497Y1126003D01*
G01X1034994Y1167006D01*
G01X1079995Y1167006D01*
G01X1079995Y1212004D01*
G01X1035995Y1212004D01*
G01X1035497Y1254001D01*
G01X1040496Y1259002D01*
G01X1155497Y1259002D01*
G01X1160498Y1254001D01*
G37*
G36*
G01X819503Y1126000D02*
G01X819503Y1253998D01*
G01X824504Y1259000D01*
G01X939505Y1259000D01*
G01X944504Y1253998D01*
G01X945007Y1212995D01*
G01X900006Y1212995D01*
G01X900006Y1167996D01*
G01X944006Y1167996D01*
G01X944504Y1126000D01*
G01X939505Y1120999D01*
G01X824504Y1120999D01*
G01X819503Y1126000D01*
G37*
G36*
G01X2114002Y1349503D02*
G01X1986003Y1349503D01*
G01X1981002Y1354505D01*
G01X1981002Y1469506D01*
G01X1986003Y1474504D01*
G01X2027007Y1475007D01*
G01X2027007Y1430006D01*
G01X2072005Y1430006D01*
G01X2072005Y1474006D01*
G01X2114002Y1474504D01*
G01X2119003Y1469506D01*
G01X2119003Y1354505D01*
G01X2114002Y1349503D01*
G37*
G36*
G01X1986001Y1690498D02*
G01X2113999Y1690498D01*
G01X2119000Y1685497D01*
G01X2119000Y1570496D01*
G01X2113999Y1565497D01*
G01X2072996Y1564994D01*
G01X2072996Y1609996D01*
G01X2027997Y1609996D01*
G01X2027997Y1565995D01*
G01X1986001Y1565497D01*
G01X1981000Y1570496D01*
G01X1981000Y1685497D01*
G01X1986001Y1690498D01*
G37*
G36*
G01X1754001Y1339999D02*
G01X1626003Y1339999D01*
G01X1621002Y1345000D01*
G01X1621002Y1460001D01*
G01X1626003Y1465000D01*
G01X1667006Y1465503D01*
G01X1667006Y1420501D01*
G01X1712005Y1420501D01*
G01X1712005Y1464502D01*
G01X1754001Y1465000D01*
G01X1759003Y1460001D01*
G01X1759003Y1345000D01*
G01X1754001Y1339999D01*
G37*
G36*
G01X1754001Y1554999D02*
G01X1712005Y1555002D01*
G01X1712005Y1599500D01*
G01X1667006Y1599500D01*
G01X1667006Y1555502D01*
G01X1626003Y1554999D01*
G01X1621002Y1560001D01*
G01X1621002Y1674999D01*
G01X1626003Y1680000D01*
G01X1754001Y1680000D01*
G01X1759003Y1674999D01*
G01X1759003Y1560001D01*
G01X1754001Y1554999D01*
G37*
G36*
G01X1170000Y1463998D02*
G01X1170000Y1335999D01*
G01X1164999Y1330998D01*
G01X1049998Y1330998D01*
G01X1044999Y1335999D01*
G01X1044496Y1377003D01*
G01X1089497Y1377003D01*
G01X1089497Y1422001D01*
G01X1045497Y1422001D01*
G01X1044999Y1463998D01*
G01X1049998Y1468999D01*
G01X1164999Y1468999D01*
G01X1170000Y1463998D01*
G37*
G36*
G01X954999Y1463998D02*
G01X954997Y1422001D01*
G01X910499Y1422001D01*
G01X910499Y1377003D01*
G01X954496Y1377003D01*
G01X954999Y1335999D01*
G01X949998Y1330998D01*
G01X835000Y1330998D01*
G01X829998Y1335999D01*
G01X829998Y1463998D01*
G01X835000Y1468999D01*
G01X949998Y1468999D01*
G01X954999Y1463998D01*
G37*
G36*
G01X1170000Y1663997D02*
G01X1170000Y1535999D01*
G01X1164999Y1530998D01*
G01X1049998Y1530998D01*
G01X1044999Y1535999D01*
G01X1044496Y1577002D01*
G01X1089497Y1577002D01*
G01X1089497Y1622001D01*
G01X1045497Y1622001D01*
G01X1044999Y1663997D01*
G01X1049998Y1668998D01*
G01X1164999Y1668998D01*
G01X1170000Y1663997D01*
G37*
G36*
G01X954999Y1663997D02*
G01X954997Y1622001D01*
G01X910499Y1622001D01*
G01X910499Y1577002D01*
G01X954496Y1577002D01*
G01X954999Y1535999D01*
G01X949998Y1530998D01*
G01X835000Y1530998D01*
G01X829998Y1535999D01*
G01X829998Y1663997D01*
G01X835000Y1668998D01*
G01X949998Y1668998D01*
G01X954999Y1663997D01*
G37*
G36*
G01X662353Y1063897D02*
G01X662490Y1066635D01*
G01X662490Y1069378D01*
G01X662353Y1072116D01*
G01X662081Y1074847D01*
G01X661673Y1077557D01*
G01X661129Y1080244D01*
G01X660453Y1082904D01*
G01X659643Y1085525D01*
G01X658706Y1088100D01*
G01X657642Y1090628D01*
G01X656450Y1093099D01*
G01X655140Y1095507D01*
G01X653710Y1097846D01*
G01X652165Y1100112D01*
G01X650509Y1102299D01*
G01X648746Y1104400D01*
G01X646880Y1106411D01*
G01X644916Y1108326D01*
G01X642861Y1110140D01*
G01X640718Y1111849D01*
G01X638490Y1113450D01*
G01X636186Y1114938D01*
G01X633811Y1116310D01*
G01X631370Y1117562D01*
G01X628871Y1118690D01*
G01X626318Y1119690D01*
G01X623720Y1120564D01*
G01X621078Y1121306D01*
G01X618406Y1121918D01*
G01X615704Y1122393D01*
G01X612983Y1122733D01*
G01X610248Y1122939D01*
G01X607507Y1123008D01*
G01X547507Y1123008D01*
G01X544767Y1122939D01*
G01X542031Y1122733D01*
G01X539311Y1122393D01*
G01X536608Y1121918D01*
G01X533936Y1121306D01*
G01X531294Y1120564D01*
G01X528696Y1119690D01*
G01X526143Y1118690D01*
G01X523644Y1117562D01*
G01X521203Y1116310D01*
G01X518828Y1114938D01*
G01X516524Y1113450D01*
G01X514297Y1111849D01*
G01X512153Y1110140D01*
G01X510098Y1108326D01*
G01X508135Y1106411D01*
G01X506268Y1104400D01*
G01X504505Y1102299D01*
G01X502849Y1100112D01*
G01X501305Y1097846D01*
G01X499875Y1095507D01*
G01X498564Y1093099D01*
G01X497373Y1090628D01*
G01X496308Y1088100D01*
G01X495371Y1085525D01*
G01X494561Y1082904D01*
G01X493885Y1080244D01*
G01X493342Y1077557D01*
G01X492933Y1074847D01*
G01X492661Y1072116D01*
G01X492524Y1069378D01*
G01X492524Y1066635D01*
G01X492661Y1063897D01*
G01X492933Y1061166D01*
G01X493342Y1058456D01*
G01X493885Y1055769D01*
G01X494561Y1053109D01*
G01X495371Y1050488D01*
G01X496308Y1047913D01*
G01X497373Y1045385D01*
G01X498564Y1042914D01*
G01X499875Y1040506D01*
G01X501305Y1038167D01*
G01X502849Y1035901D01*
G01X504505Y1033714D01*
G01X506268Y1031613D01*
G01X508135Y1029602D01*
G01X510098Y1027687D01*
G01X512153Y1025873D01*
G01X514297Y1024164D01*
G01X516524Y1022563D01*
G01X518828Y1021075D01*
G01X521203Y1019703D01*
G01X523644Y1018451D01*
G01X526143Y1017323D01*
G01X528696Y1016323D01*
G01X531294Y1015449D01*
G01X533936Y1014707D01*
G01X536608Y1014095D01*
G01X539311Y1013620D01*
G01X542031Y1013280D01*
G01X544767Y1013074D01*
G01X547507Y1013005D01*
G01X607507Y1013005D01*
G01X610248Y1013074D01*
G01X612983Y1013280D01*
G01X615704Y1013620D01*
G01X618406Y1014095D01*
G01X621078Y1014707D01*
G01X623720Y1015449D01*
G01X626318Y1016323D01*
G01X628871Y1017323D01*
G01X631370Y1018451D01*
G01X633811Y1019703D01*
G01X636186Y1021075D01*
G01X638490Y1022563D01*
G01X640718Y1024164D01*
G01X642861Y1025873D01*
G01X644916Y1027687D01*
G01X646880Y1029602D01*
G01X648746Y1031613D01*
G01X650509Y1033714D01*
G01X652165Y1035901D01*
G01X653710Y1038167D01*
G01X655140Y1040506D01*
G01X656450Y1042914D01*
G01X657642Y1045385D01*
G01X658706Y1047913D01*
G01X659643Y1050488D01*
G01X660453Y1053109D01*
G01X661129Y1055769D01*
G01X661673Y1058456D01*
G01X662081Y1061166D01*
G01X662353Y1063897D01*
G37*
G36*
G01X662353Y1927878D02*
G01X662490Y1930616D01*
G01X662490Y1933359D01*
G01X662353Y1936097D01*
G01X662081Y1938828D01*
G01X661673Y1941538D01*
G01X661129Y1944225D01*
G01X660453Y1946885D01*
G01X659643Y1949506D01*
G01X658706Y1952081D01*
G01X657642Y1954609D01*
G01X656450Y1957080D01*
G01X655140Y1959488D01*
G01X653710Y1961827D01*
G01X652165Y1964093D01*
G01X650509Y1966280D01*
G01X648746Y1968381D01*
G01X646880Y1970392D01*
G01X644916Y1972307D01*
G01X642861Y1974121D01*
G01X640718Y1975830D01*
G01X638490Y1977431D01*
G01X636186Y1978919D01*
G01X633811Y1980291D01*
G01X631370Y1981543D01*
G01X628871Y1982671D01*
G01X626318Y1983671D01*
G01X623720Y1984545D01*
G01X621078Y1985287D01*
G01X618406Y1985899D01*
G01X615704Y1986374D01*
G01X612983Y1986714D01*
G01X610248Y1986920D01*
G01X607507Y1986989D01*
G01X547507Y1986989D01*
G01X544767Y1986920D01*
G01X542031Y1986714D01*
G01X539311Y1986374D01*
G01X536608Y1985899D01*
G01X533936Y1985287D01*
G01X531294Y1984545D01*
G01X528696Y1983671D01*
G01X526143Y1982671D01*
G01X523644Y1981543D01*
G01X521203Y1980291D01*
G01X518828Y1978919D01*
G01X516524Y1977431D01*
G01X514297Y1975830D01*
G01X512153Y1974121D01*
G01X510098Y1972307D01*
G01X508135Y1970392D01*
G01X506268Y1968381D01*
G01X504505Y1966280D01*
G01X502849Y1964093D01*
G01X501305Y1961827D01*
G01X499875Y1959488D01*
G01X498564Y1957080D01*
G01X497373Y1954609D01*
G01X496308Y1952081D01*
G01X495371Y1949506D01*
G01X494561Y1946885D01*
G01X493885Y1944225D01*
G01X493342Y1941538D01*
G01X492933Y1938828D01*
G01X492661Y1936097D01*
G01X492524Y1933359D01*
G01X492524Y1930616D01*
G01X492661Y1927878D01*
G01X492933Y1925147D01*
G01X493342Y1922437D01*
G01X493885Y1919750D01*
G01X494561Y1917090D01*
G01X495371Y1914469D01*
G01X496308Y1911894D01*
G01X497373Y1909366D01*
G01X498564Y1906895D01*
G01X499875Y1904487D01*
G01X501305Y1902148D01*
G01X502849Y1899882D01*
G01X504505Y1897695D01*
G01X506268Y1895594D01*
G01X508135Y1893583D01*
G01X510098Y1891668D01*
G01X512153Y1889854D01*
G01X514297Y1888145D01*
G01X516524Y1886544D01*
G01X518828Y1885056D01*
G01X521203Y1883684D01*
G01X523644Y1882432D01*
G01X526143Y1881304D01*
G01X528696Y1880304D01*
G01X531294Y1879430D01*
G01X533936Y1878688D01*
G01X536608Y1878076D01*
G01X539311Y1877601D01*
G01X542031Y1877261D01*
G01X544767Y1877055D01*
G01X547507Y1876986D01*
G01X607507Y1876986D01*
G01X610248Y1877055D01*
G01X612983Y1877261D01*
G01X615704Y1877601D01*
G01X618406Y1878076D01*
G01X621078Y1878688D01*
G01X623720Y1879430D01*
G01X626318Y1880304D01*
G01X628871Y1881304D01*
G01X631370Y1882432D01*
G01X633811Y1883684D01*
G01X636186Y1885056D01*
G01X638490Y1886544D01*
G01X640718Y1888145D01*
G01X642861Y1889854D01*
G01X644916Y1891668D01*
G01X646880Y1893583D01*
G01X648746Y1895594D01*
G01X650509Y1897695D01*
G01X652165Y1899882D01*
G01X653710Y1902148D01*
G01X655140Y1904487D01*
G01X656450Y1906895D01*
G01X657642Y1909366D01*
G01X658706Y1911894D01*
G01X659643Y1914469D01*
G01X660453Y1917090D01*
G01X661129Y1919750D01*
G01X661673Y1922437D01*
G01X662081Y1925147D01*
G01X662353Y1927878D01*
G37*
G36*
G01X282344Y1063897D02*
G01X282481Y1066635D01*
G01X282481Y1069378D01*
G01X282344Y1072116D01*
G01X282072Y1074847D01*
G01X281663Y1077557D01*
G01X281120Y1080244D01*
G01X280444Y1082904D01*
G01X279634Y1085525D01*
G01X278696Y1088100D01*
G01X277632Y1090628D01*
G01X276441Y1093099D01*
G01X275130Y1095507D01*
G01X273700Y1097846D01*
G01X272156Y1100112D01*
G01X270500Y1102299D01*
G01X268737Y1104400D01*
G01X266870Y1106411D01*
G01X264907Y1108326D01*
G01X262852Y1110140D01*
G01X260708Y1111849D01*
G01X258481Y1113450D01*
G01X256177Y1114938D01*
G01X253802Y1116310D01*
G01X251361Y1117562D01*
G01X248862Y1118690D01*
G01X246309Y1119690D01*
G01X243710Y1120564D01*
G01X241069Y1121306D01*
G01X238397Y1121918D01*
G01X235694Y1122393D01*
G01X232974Y1122733D01*
G01X230238Y1122939D01*
G01X227498Y1123008D01*
G01X167498Y1123008D01*
G01X164757Y1122939D01*
G01X162022Y1122733D01*
G01X159301Y1122393D01*
G01X156599Y1121918D01*
G01X153927Y1121306D01*
G01X151285Y1120564D01*
G01X148687Y1119690D01*
G01X146134Y1118690D01*
G01X143634Y1117562D01*
G01X141194Y1116310D01*
G01X138819Y1114938D01*
G01X136515Y1113450D01*
G01X134287Y1111849D01*
G01X132144Y1110140D01*
G01X130089Y1108326D01*
G01X128125Y1106411D01*
G01X126258Y1104400D01*
G01X124496Y1102299D01*
G01X122839Y1100112D01*
G01X121295Y1097846D01*
G01X119865Y1095507D01*
G01X118555Y1093099D01*
G01X117363Y1090628D01*
G01X116299Y1088100D01*
G01X115362Y1085525D01*
G01X114551Y1082904D01*
G01X113876Y1080244D01*
G01X113332Y1077557D01*
G01X112923Y1074847D01*
G01X112652Y1072116D01*
G01X112514Y1069378D01*
G01X112514Y1066635D01*
G01X112652Y1063897D01*
G01X112923Y1061166D01*
G01X113332Y1058456D01*
G01X113876Y1055769D01*
G01X114551Y1053109D01*
G01X115362Y1050488D01*
G01X116299Y1047913D01*
G01X117363Y1045385D01*
G01X118555Y1042914D01*
G01X119865Y1040506D01*
G01X121295Y1038167D01*
G01X122839Y1035901D01*
G01X124496Y1033714D01*
G01X126258Y1031613D01*
G01X128125Y1029602D01*
G01X130089Y1027687D01*
G01X132144Y1025873D01*
G01X134287Y1024164D01*
G01X136515Y1022563D01*
G01X138819Y1021075D01*
G01X141194Y1019703D01*
G01X143634Y1018451D01*
G01X146134Y1017323D01*
G01X148687Y1016323D01*
G01X151285Y1015449D01*
G01X153927Y1014707D01*
G01X156599Y1014095D01*
G01X159301Y1013620D01*
G01X162022Y1013280D01*
G01X164757Y1013074D01*
G01X167498Y1013005D01*
G01X227498Y1013005D01*
G01X230238Y1013074D01*
G01X232974Y1013280D01*
G01X235694Y1013620D01*
G01X238397Y1014095D01*
G01X241069Y1014707D01*
G01X243710Y1015449D01*
G01X246309Y1016323D01*
G01X248862Y1017323D01*
G01X251361Y1018451D01*
G01X253802Y1019703D01*
G01X256177Y1021075D01*
G01X258481Y1022563D01*
G01X260708Y1024164D01*
G01X262852Y1025873D01*
G01X264907Y1027687D01*
G01X266870Y1029602D01*
G01X268737Y1031613D01*
G01X270500Y1033714D01*
G01X272156Y1035901D01*
G01X273700Y1038167D01*
G01X275130Y1040506D01*
G01X276441Y1042914D01*
G01X277632Y1045385D01*
G01X278696Y1047913D01*
G01X279634Y1050488D01*
G01X280444Y1053109D01*
G01X281120Y1055769D01*
G01X281663Y1058456D01*
G01X282072Y1061166D01*
G01X282344Y1063897D01*
G37*
G36*
G01X282344Y1927878D02*
G01X282481Y1930616D01*
G01X282481Y1933359D01*
G01X282344Y1936097D01*
G01X282072Y1938828D01*
G01X281663Y1941538D01*
G01X281120Y1944225D01*
G01X280444Y1946885D01*
G01X279634Y1949506D01*
G01X278696Y1952081D01*
G01X277632Y1954609D01*
G01X276441Y1957080D01*
G01X275130Y1959488D01*
G01X273700Y1961827D01*
G01X272156Y1964093D01*
G01X270500Y1966280D01*
G01X268737Y1968381D01*
G01X266870Y1970392D01*
G01X264907Y1972307D01*
G01X262852Y1974121D01*
G01X260708Y1975830D01*
G01X258481Y1977431D01*
G01X256177Y1978919D01*
G01X253802Y1980291D01*
G01X251361Y1981543D01*
G01X248862Y1982671D01*
G01X246309Y1983671D01*
G01X243710Y1984545D01*
G01X241069Y1985287D01*
G01X238397Y1985899D01*
G01X235694Y1986374D01*
G01X232974Y1986714D01*
G01X230238Y1986920D01*
G01X227498Y1986989D01*
G01X167498Y1986989D01*
G01X164757Y1986920D01*
G01X162022Y1986714D01*
G01X159301Y1986374D01*
G01X156599Y1985899D01*
G01X153927Y1985287D01*
G01X151285Y1984545D01*
G01X148687Y1983671D01*
G01X146134Y1982671D01*
G01X143634Y1981543D01*
G01X141194Y1980291D01*
G01X138819Y1978919D01*
G01X136515Y1977431D01*
G01X134287Y1975830D01*
G01X132144Y1974121D01*
G01X130089Y1972307D01*
G01X128125Y1970392D01*
G01X126258Y1968381D01*
G01X124496Y1966280D01*
G01X122839Y1964093D01*
G01X121295Y1961827D01*
G01X119865Y1959488D01*
G01X118555Y1957080D01*
G01X117363Y1954609D01*
G01X116299Y1952081D01*
G01X115362Y1949506D01*
G01X114551Y1946885D01*
G01X113876Y1944225D01*
G01X113332Y1941538D01*
G01X112923Y1938828D01*
G01X112652Y1936097D01*
G01X112514Y1933359D01*
G01X112514Y1930616D01*
G01X112652Y1927878D01*
G01X112923Y1925147D01*
G01X113332Y1922437D01*
G01X113876Y1919750D01*
G01X114551Y1917090D01*
G01X115362Y1914469D01*
G01X116299Y1911894D01*
G01X117363Y1909366D01*
G01X118555Y1906895D01*
G01X119865Y1904487D01*
G01X121295Y1902148D01*
G01X122839Y1899882D01*
G01X124496Y1897695D01*
G01X126258Y1895594D01*
G01X128125Y1893583D01*
G01X130089Y1891668D01*
G01X132144Y1889854D01*
G01X134287Y1888145D01*
G01X136515Y1886544D01*
G01X138819Y1885056D01*
G01X141194Y1883684D01*
G01X143634Y1882432D01*
G01X146134Y1881304D01*
G01X148687Y1880304D01*
G01X151285Y1879430D01*
G01X153927Y1878688D01*
G01X156599Y1878076D01*
G01X159301Y1877601D01*
G01X162022Y1877261D01*
G01X164757Y1877055D01*
G01X167498Y1876986D01*
G01X227498Y1876986D01*
G01X230238Y1877055D01*
G01X232974Y1877261D01*
G01X235694Y1877601D01*
G01X238397Y1878076D01*
G01X241069Y1878688D01*
G01X243710Y1879430D01*
G01X246309Y1880304D01*
G01X248862Y1881304D01*
G01X251361Y1882432D01*
G01X253802Y1883684D01*
G01X256177Y1885056D01*
G01X258481Y1886544D01*
G01X260708Y1888145D01*
G01X262852Y1889854D01*
G01X264907Y1891668D01*
G01X266870Y1893583D01*
G01X268737Y1895594D01*
G01X270500Y1897695D01*
G01X272156Y1899882D01*
G01X273700Y1902148D01*
G01X275130Y1904487D01*
G01X276441Y1906895D01*
G01X277632Y1909366D01*
G01X278696Y1911894D01*
G01X279634Y1914469D01*
G01X280444Y1917090D01*
G01X281120Y1919750D01*
G01X281663Y1922437D01*
G01X282072Y1925147D01*
G01X282344Y1927878D01*
G37*
G36*
G01X662508Y1809974D02*
G01X662508Y1729976D01*
G01X542511Y1729976D01*
G01X542511Y1809974D01*
G01X662508Y1809974D01*
G37*
G36*
G01X662508Y1684980D02*
G01X662508Y1614985D01*
G01X542511Y1614985D01*
G01X542511Y1684980D01*
G01X662508Y1684980D01*
G37*
G36*
G01X662508Y1584983D02*
G01X662508Y1514983D01*
G01X542511Y1514983D01*
G01X542511Y1584983D01*
G01X662508Y1584983D01*
G37*
G36*
G01X662508Y1484983D02*
G01X662508Y1414983D01*
G01X542511Y1414983D01*
G01X542511Y1484983D01*
G01X662508Y1484983D01*
G37*
G36*
G01X662508Y1384986D02*
G01X662508Y1314983D01*
G01X542511Y1314983D01*
G01X542511Y1384986D01*
G01X662508Y1384986D01*
G37*
G36*
G01X662508Y1269995D02*
G01X662508Y1189998D01*
G01X542508Y1189998D01*
G01X542508Y1269995D01*
G01X662508Y1269995D01*
G37*

G04 Pad Start*
G54D10*
G01X1450001Y1625030D03*
G01X1450001Y1414972D03*
G04 Pad End*

M02*

